dummy_motion.mot																							
nRows=51																							
nColumns=24																							
name dummy_motion.mot																							
datacolumns 24																							
datarows 51																							
range 25.01 25.51																							
endheader																							
time	lower_torso_RX	lower_torso_RY	lower_torso_RZ	lower_torso_TX	lower_torso_TY	lower_torso_TZ	hip_flex_r	hip_add_r	hip_rot_r	knee_flex_r	ankle_flex_r	hip_flex_l	hip_add_l	hip_rot_l	knee_flex_l	ankle_flex_l	lumbar_pitch	lumbar_roll	lumbar_yaw	subt_angle_r	subt_angle_l	toe_angle_r	toe_angle_l
25.01	0	0	0	0	0	0	12.23695652	38.24728268	-18.66179013	-1.660431077	-13.70663701	12.23695652	38.24728268	-18.66179013	-1.660431077	-13.70663701	0	0	0	-34.05563371	-34.05563371	0	0
25.02	0	0	0	0	0	0	61.18752756	29.03553201	-11.80072238	25.3308863	9.64233184	61.18752756	29.03553201	-11.80072238	25.3308863	9.64233184	0	0	0	2.057479555	2.057479555	0	0
25.03	0	0	0	0	0	0	35.29781895	9.121413425	29.05231655	25.1839748	-18.30115821	35.29781895	9.121413425	29.05231655	25.1839748	-18.30115821	0	0	0	-18.41960948	-18.41960948	0	0
25.04	0	0	0	0	0	0	58.56000451	34.06400263	-17.37423347	41.05709307	-17.70754407	58.56000451	34.06400263	-17.37423347	41.05709307	-17.70754407	0	0	0	-27.00704807	-27.00704807	0	0
25.05	0	0	0	0	0	0	42.53192792	-17.94563173	3.606885004	54.22311284	14.70949364	42.53192792	-17.94563173	3.606885004	54.22311284	14.70949364	0	0	0	1.015425406	1.015425406	0	0
25.06	0	0	0	0	0	0	60.42385624	36.09573235	-36.70139378	0.628808611	-29.41137499	60.42385624	36.09573235	-36.70139378	0.628808611	-29.41137499	0	0	0	5.651484716	5.651484716	0	0
25.07	0	0	0	0	0	0	-5.696595991	39.99126525	-36.89939785	28.80524464	-20.54697525	-5.696595991	39.99126525	-36.89939785	28.80524464	-20.54697525	0	0	0	-6.291075722	-6.291075722	0	0
25.08	0	0	0	0	0	0	60.55393516	36.39333869	-14.36271932	115.7954537	25.87254653	60.55393516	36.39333869	-14.36271932	115.7954537	25.87254653	0	0	0	-25.43387804	-25.43387804	0	0
25.09	0	0	0	0	0	0	88.13779149	4.170757118	-16.51623016	74.50843829	42.95707944	88.13779149	4.170757118	-16.51623016	74.50843829	42.95707944	0	0	0	-35.80094371	-35.80094371	0	0
25.1	0	0	0	0	0	0	-1.004431936	-33.5800375	23.08329653	103.062723	5.305227905	-1.004431936	-33.5800375	23.08329653	103.062723	5.305227905	0	0	0	-16.65821383	-16.65821383	0	0
25.11	0	0	0	0	0	0	32.76152502	22.59011306	-8.261767562	39.24107571	34.49153066	32.76152502	22.59011306	-8.261767562	39.24107571	34.49153066	0	0	0	-31.90781002	-31.90781002	0	0
25.12	0	0	0	0	0	0	41.22011366	-14.94227758	22.10851052	83.31298187	12.24671375	41.22011366	-14.94227758	22.10851052	83.31298187	12.24671375	0	0	0	-17.71224814	-17.71224814	0	0
25.13	0	0	0	0	0	0	56.12737422	23.69998847	-39.69054952	-4.478784229	14.57744502	56.12737422	23.69998847	-39.69054952	-4.478784229	14.57744502	0	0	0	-14.76722457	-14.76722457	0	0
25.14	0	0	0	0	0	0	52.530873	-18.50452064	-35.22320134	64.92854381	39.5985589	52.530873	-18.50452064	-35.22320134	64.92854381	39.5985589	0	0	0	16.25275192	16.25275192	0	0
25.15	0	0	0	0	0	0	-1.646964114	-37.69946651	39.46809957	97.84812867	39.25251569	-1.646964114	-37.69946651	39.46809957	97.84812867	39.25251569	0	0	0	-16.07570797	-16.07570797	0	0
25.16	0	0	0	0	0	0	17.18606042	-4.092145671	38.75329344	11.92853392	-13.22806329	17.18606042	-4.092145671	38.75329344	11.92853392	-13.22806329	0	0	0	-31.64734894	-31.64734894	0	0
25.17	0	0	0	0	0	0	57.73979429	0.448764037	-28.2484149	13.58117937	-21.83130966	57.73979429	0.448764037	-28.2484149	13.58117937	-21.83130966	0	0	0	-36.12180726	-36.12180726	0	0
25.18	0	0	0	0	0	0	17.77602699	33.29867171	26.07845917	99.86379095	12.20325398	17.77602699	33.29867171	26.07845917	99.86379095	12.20325398	0	0	0	-29.62274583	-29.62274583	0	0
25.19	0	0	0	0	0	0	28.95261294	31.59847415	25.00113802	76.28559996	47.39326076	28.95261294	31.59847415	25.00113802	76.28559996	47.39326076	0	0	0	-31.19296391	-31.19296391	0	0
25.2	0	0	0	0	0	0	52.53658496	28.63264909	13.13896846	1.511322955	-10.68805522	52.53658496	28.63264909	13.13896846	1.511322955	-10.68805522	0	0	0	5.863020807	5.863020807	0	0
25.21	0	0	0	0	0	0	5.752736557	-21.4465795	38.12454548	10.74983668	44.4549571	5.752736557	-21.4465795	38.12454548	10.74983668	44.4549571	0	0	0	-35.53221949	-35.53221949	0	0
25.22	0	0	0	0	0	0	35.80750365	-11.18039012	-37.45412727	58.16982484	29.54229601	35.80750365	-11.18039012	-37.45412727	58.16982484	29.54229601	0	0	0	-17.75056892	-17.75056892	0	0
25.23	0	0	0	0	0	0	9.336670941	-4.907900572	14.00810299	115.967541	-6.424704767	9.336670941	-4.907900572	14.00810299	115.967541	-6.424704767	0	0	0	-36.1147186	-36.1147186	0	0
25.24	0	0	0	0	0	0	38.23102877	31.27738036	-30.71484418	-7.969054742	28.76960673	38.23102877	31.27738036	-30.71484418	-7.969054742	28.76960673	0	0	0	11.72150464	11.72150464	0	0
25.25	0	0	0	0	0	0	75.71640653	14.65451674	-9.020790639	-4.110875916	7.169909659	75.71640653	14.65451674	-9.020790639	-4.110875916	7.169909659	0	0	0	18.38655405	18.38655405	0	0
25.26	0	0	0	0	0	0	24.78508161	-19.74818649	26.10744661	100.3570871	30.57498231	24.78508161	-19.74818649	26.10744661	100.3570871	30.57498231	0	0	0	-14.67644665	-14.67644665	0	0
25.27	0	0	0	0	0	0	28.93004924	25.38383514	-6.942847474	24.42029569	49.54123906	28.93004924	25.38383514	-6.942847474	24.42029569	49.54123906	0	0	0	-32.88434872	-32.88434872	0	0
25.28	0	0	0	0	0	0	32.06307631	26.73976962	11.98286152	36.56403146	0.816675261	32.06307631	26.73976962	11.98286152	36.56403146	0.816675261	0	0	0	-35.48125358	-35.48125358	0	0
25.29	0	0	0	0	0	0	93.99512422	-43.63653945	-15.98538809	66.81592303	-27.51947555	93.99512422	-43.63653945	-15.98538809	66.81592303	-27.51947555	0	0	0	19.35503622	19.35503622	0	0
25.3	0	0	0	0	0	0	27.44739246	28.80797501	-28.73100081	64.88421715	-26.70066369	27.44739246	28.80797501	-28.73100081	64.88421715	-26.70066369	0	0	0	-20.48169393	-20.48169393	0	0
25.31	0	0	0	0	0	0	1.576739951	-8.654552553	35.01119862	10.10576441	16.80125414	1.576739951	-8.654552553	35.01119862	10.10576441	16.80125414	0	0	0	0.844615357	0.844615357	0	0
25.32	0	0	0	0	0	0	93.00861867	34.79459598	-30.25834281	57.12148148	1.133407312	93.00861867	34.79459598	-30.25834281	57.12148148	1.133407312	0	0	0	7.508379343	7.508379343	0	0
25.33	0	0	0	0	0	0	88.23592909	-18.70365638	39.31214716	11.38656234	47.69511572	88.23592909	-18.70365638	39.31214716	11.38656234	47.69511572	0	0	0	-35.34850663	-35.34850663	0	0
25.34	0	0	0	0	0	0	33.32254052	35.60610512	26.21415243	-9.200357325	12.18943051	33.32254052	35.60610512	26.21415243	-9.200357325	12.18943051	0	0	0	-0.243013664	-0.243013664	0	0
25.35	0	0	0	0	0	0	93.39168724	-41.79254052	-36.68238631	101.5353827	33.05954578	93.39168724	-41.79254052	-36.68238631	101.5353827	33.05954578	0	0	0	-21.32219325	-21.32219325	0	0
25.36	0	0	0	0	0	0	13.00753522	12.13342354	-2.692306001	58.2584532	31.78099684	13.00753522	12.13342354	-2.692306001	58.2584532	31.78099684	0	0	0	-18.71543876	-18.71543876	0	0
25.37	0	0	0	0	0	0	41.02847503	-4.724334281	-12.39498686	36.87380472	-10.8326033	41.02847503	-4.724334281	-12.39498686	36.87380472	-10.8326033	0	0	0	-27.76253669	-27.76253669	0	0
25.38	0	0	0	0	0	0	16.57839739	-47.38872071	6.244192776	117.9643078	6.397938326	16.57839739	-47.38872071	6.244192776	117.9643078	6.397938326	0	0	0	-32.96315357	-32.96315357	0	0
25.39	0	0	0	0	0	0	20.18921666	16.03629244	-12.52945982	119.7025321	10.23193875	20.18921666	16.03629244	-12.52945982	119.7025321	10.23193875	0	0	0	18.81097004	18.81097004	0	0
25.4	0	0	0	0	0	0	-10.15862402	19.91558387	2.511804372	113.3806699	14.70456655	-10.15862402	19.91558387	2.511804372	113.3806699	14.70456655	0	0	0	-35.92729281	-35.92729281	0	0
25.41	0	0	0	0	0	0	54.56622392	-27.1636334	-18.53171976	96.13395339	14.42204331	54.56622392	-27.1636334	-18.53171976	96.13395339	14.42204331	0	0	0	-35.30028838	-35.30028838	0	0
25.42	0	0	0	0	0	0	81.00350869	39.3832286	15.84362631	114.960662	16.07917447	81.00350869	39.3832286	15.84362631	114.960662	16.07917447	0	0	0	-21.56078963	-21.56078963	0	0
25.43	0	0	0	0	0	0	0.280573148	-42.46438945	-11.31153851	41.1299762	23.62470597	0.280573148	-42.46438945	-11.31153851	41.1299762	23.62470597	0	0	0	-26.0934342	-26.0934342	0	0
25.44	0	0	0	0	0	0	8.136662654	36.99386662	9.110767269	-8.806548436	4.82040576	8.136662654	36.99386662	9.110767269	-8.806548436	4.82040576	0	0	0	7.21167226	7.21167226	0	0
25.45	0	0	0	0	0	0	14.05139811	3.347109426	-36.7092602	52.01239867	-9.54491118	14.05139811	3.347109426	-36.7092602	52.01239867	-9.54491118	0	0	0	-29.68444194	-29.68444194	0	0
25.46	0	0	0	0	0	0	62.09350062	35.49479446	-6.815769486	83.63700262	46.32763817	62.09350062	35.49479446	-6.815769486	83.63700262	46.32763817	0	0	0	-29.87980727	-29.87980727	0	0
25.47	0	0	0	0	0	0	64.36692388	-43.62128708	-35.70619094	78.17463937	43.87063202	64.36692388	-43.62128708	-35.70619094	78.17463937	43.87063202	0	0	0	-39.7611428	-39.7611428	0	0
25.48	0	0	0	0	0	0	71.3307559	28.97384934	8.336287378	70.78852853	-25.01674955	71.3307559	28.97384934	8.336287378	70.78852853	-25.01674955	0	0	0	-26.07384946	-26.07384946	0	0
25.49	0	0	0	0	0	0	-1.877142545	29.81326169	6.618784929	104.4417848	-27.78216083	-1.877142545	29.81326169	6.618784929	104.4417848	-27.78216083	0	0	0	-17.94143793	-17.94143793	0	0
25.5	0	0	0	0	0	0	47.91795929	-0.177345665	14.90195186	25.66302117	17.75471506	47.91795929	-0.177345665	14.90195186	25.66302117	17.75471506	0	0	0	5.025774197	5.025774197	0	0
25.51	0	0	0	0	0	0	44.21955584	-19.51111499	-26.28130611	70.22930505	42.16039063	44.21955584	-19.51111499	-26.28130611	70.22930505	42.16039063	0	0	0	19.6092384	19.6092384	0	0
